<?xml version="1.0" encoding="UTF-8" standalone="no" ?>
<!DOCTYPE svg PUBLIC "-//W3C//DTD SVG 1.1//EN" "http://www.w3.org/Graphics/SVG/1.1/DTD/svg11.dtd">
<svg xmlns="http://www.w3.org/2000/svg" xmlns:xlink="http://www.w3.org/1999/xlink" version="1.1" width="1080" height="1080" viewBox="0 0 1080 1080" xml:space="preserve">
<desc>Created with Fabric.js 5.2.4</desc>
<defs>
</defs>
<g transform="matrix(1 0 0 1 540 540)" id="ca07bbdc-0f74-43a4-97cc-7c44867a0179"  >
<rect style="stroke: none; stroke-width: 1; stroke-dasharray: none; stroke-linecap: butt; stroke-dashoffset: 0; stroke-linejoin: miter; stroke-miterlimit: 4; fill: rgb(255,255,255); fill-rule: nonzero; opacity: 1; visibility: hidden;" vector-effect="non-scaling-stroke"  x="-540" y="-540" rx="0" ry="0" width="1080" height="1080" />
</g>
<g transform="matrix(1 0 0 1 540 540)" id="72660d4a-9fb2-4cf2-9bbd-6efae7adc224"  >
</g>
<g transform="matrix(1 0 0 1 540 540)"  >
<g style="" vector-effect="non-scaling-stroke"   >
		<g transform="matrix(3.78 0 0 3.78 0.08 83.7)" id="path2376"  >
<path style="stroke: none; stroke-width: 0.35277778; stroke-dasharray: none; stroke-linecap: butt; stroke-dashoffset: 0; stroke-linejoin: miter; stroke-miterlimit: 4; fill: rgb(50,188,173); fill-rule: nonzero; opacity: 1;" vector-effect="non-scaling-stroke"  transform=" translate(-574.87, -87.96)" d="M 596.82737 86.620206 C 593.7469199999999 86.620206 590.84955 85.420766 588.67115 83.243416 L 576.89437 71.466286 C 576.06746 70.637256 574.62636 70.639726 573.79981 71.466286 L 561.9799899999999 83.286456 C 559.80158 85.463796 556.9042199999999 86.663246 553.8237599999999 86.663246 L 551.5028399999999 86.663246 L 566.4186399999999 101.57869 C 571.0767099999998 106.23676999999999 578.6293299999999 106.23676999999999 583.2877599999998 101.57869 L 598.2458899999998 86.620206 z" stroke-linecap="round" />
</g>
		<g transform="matrix(3.78 0 0 3.78 0.08 -83.66)" id="path2380"  >
<path style="stroke: none; stroke-width: 0.35277778; stroke-dasharray: none; stroke-linecap: butt; stroke-dashoffset: 0; stroke-linejoin: miter; stroke-miterlimit: 4; fill: rgb(50,188,173); fill-rule: nonzero; opacity: 1;" vector-effect="non-scaling-stroke"  transform=" translate(-574.87, -43.68)" d="M 553.82362 44.963326 C 556.90408 44.963326 559.80144 46.162766000000005 561.97984 48.340116 L 573.79966 60.162046000000004 C 574.6509100000001 61.013656000000005 576.0408600000001 61.016836000000005 576.89423 60.161046000000006 L 588.67101 48.38320600000001 C 590.84941 46.20585600000001 593.74677 45.00641600000001 596.82723 45.00641600000001 L 598.2457499999999 45.00641600000001 L 583.28797 30.048286000000008 C 578.62919 25.389854000000007 571.07657 25.389854000000007 566.41849 30.048286000000008 L 551.5034 44.96337600000001 z" stroke-linecap="round" />
</g>
		<g transform="matrix(3.78 0 0 3.78 0 0)" id="path2384"  >
<path style="stroke: none; stroke-width: 0.35277778; stroke-dasharray: none; stroke-linecap: butt; stroke-dashoffset: 0; stroke-linejoin: miter; stroke-miterlimit: 4; fill: rgb(50,188,173); fill-rule: nonzero; opacity: 1;" vector-effect="non-scaling-stroke"  transform=" translate(-574.85, -65.81)" d="M 610.61844 57.378776 L 601.57922 48.339556 C 601.3802499999999 48.419256000000004 601.1646999999999 48.469016 600.93716 48.469016 L 596.8272999999999 48.469016 C 594.7025199999999 48.469016 592.62254 49.330856000000004 591.1211199999999 50.833336 L 579.3446899999999 62.610116000000005 C 578.2426199999999 63.712196000000006 576.7944699999999 64.263586 575.3477199999999 64.263586 C 573.8995699999998 64.263586 572.4524799999999 63.712196000000006 571.3507499999998 62.611176 L 559.5298699999998 50.790296 C 558.0284499999998 49.287465999999995 555.9484699999998 48.425985999999995 553.8236899999998 48.425985999999995 L 548.7701499999998 48.425985999999995 C 548.5545999999998 48.425985999999995 548.3531699999999 48.37518599999999 548.1630199999998 48.303566 L 539.0878099999999 57.378775999999995 C 534.4293799999999 62.037206 534.4293799999999 69.58947599999999 539.0878099999999 74.247906 L 548.1626699999998 83.322756 C 548.3531699999999 83.251156 548.5545999999998 83.200346 548.7701499999998 83.200346 L 553.8236899999998 83.200346 C 555.9484699999998 83.200346 558.0284499999998 82.338866 559.5298699999998 80.83638599999999 L 571.3496899999999 69.01656599999998 C 573.4861199999999 66.88190599999999 577.2103899999998 66.88119599999999 579.3446899999999 69.01756599999999 L 591.1211199999999 80.79329599999998 C 592.62254 82.29577599999999 594.7025199999999 83.15760599999999 596.8272999999999 83.15760599999999 L 600.93716 83.15760599999999 C 601.1646999999999 83.15760599999999 601.3802499999999 83.20730599999999 601.57922 83.28707599999998 L 610.61844 74.24785599999998 C 615.27652 69.58942599999999 615.27652 62.03715599999998 610.61844 57.378725999999986" stroke-linecap="round" />
</g>
</g>
</g>
</svg>