<svg xmlns="http://www.w3.org/2000/svg" xmlns:xlink="http://www.w3.org/1999/xlink" width="1080" zoomAndPan="magnify" viewBox="0 0 810 809.999993" height="1080" preserveAspectRatio="xMidYMid meet" version="1.2"><g id="175a763fa3"><rect x="0" width="810" y="0" height="809.999993" style="fill:#ffffff;fill-opacity:1;stroke:none;"/><rect x="0" width="810" y="0" height="809.999993" style="fill:#ffffff;fill-opacity:1;stroke:none;"/><path style=" stroke:none;fill-rule:nonzero;fill:#32bcad;fill-opacity:1;" d="M 622.800781 616.789062 C 592.285156 616.789062 563.582031 604.90625 542 583.335938 L 425.328125 466.664062 C 417.136719 458.449219 402.859375 458.476562 394.671875 466.664062 L 277.578125 583.761719 C 255.996094 605.332031 227.292969 617.214844 196.773438 617.214844 L 173.78125 617.214844 L 321.550781 764.980469 C 367.695312 811.125 442.515625 811.125 488.667969 764.980469 L 636.855469 616.789062 Z M 622.800781 616.789062 "/><path style=" stroke:none;fill-rule:nonzero;fill:#32bcad;fill-opacity:1;" d="M 196.773438 204.152344 C 227.289062 204.152344 255.996094 216.035156 277.574219 237.605469 L 394.671875 354.722656 C 403.105469 363.160156 416.875 363.191406 425.328125 354.714844 L 541.996094 238.035156 C 563.578125 216.460938 592.28125 204.582031 622.800781 204.582031 L 636.851562 204.582031 L 488.667969 56.394531 C 442.515625 10.242188 367.695312 10.242188 321.546875 56.394531 L 173.789062 204.152344 Z M 196.773438 204.152344 "/><path style=" stroke:none;fill-rule:nonzero;fill:#32bcad;fill-opacity:1;" d="M 759.414062 327.171875 L 669.863281 237.625 C 667.894531 238.414062 665.757812 238.90625 663.503906 238.90625 L 622.789062 238.90625 C 601.738281 238.90625 581.132812 247.445312 566.257812 262.328125 L 449.59375 379 C 438.675781 389.917969 424.328125 395.378906 409.996094 395.378906 C 395.648438 395.378906 381.3125 389.917969 370.398438 379.007812 L 253.292969 261.902344 C 238.417969 247.015625 217.8125 238.480469 196.761719 238.480469 L 146.699219 238.480469 C 144.5625 238.480469 142.566406 237.976562 140.683594 237.265625 L 50.777344 327.171875 C 4.628906 373.324219 4.628906 448.140625 50.777344 494.292969 L 140.679688 584.191406 C 142.566406 583.484375 144.5625 582.980469 146.699219 582.980469 L 196.761719 582.980469 C 217.8125 582.980469 238.417969 574.445312 253.292969 559.5625 L 370.386719 442.464844 C 391.554688 421.316406 428.449219 421.3125 449.59375 442.476562 L 566.257812 559.132812 C 581.132812 574.019531 601.738281 582.558594 622.789062 582.558594 L 663.503906 582.558594 C 665.757812 582.558594 667.894531 583.050781 669.863281 583.839844 L 759.414062 494.289062 C 805.5625 448.140625 805.5625 373.320312 759.414062 327.171875 "/></g></svg>